<?xml version="1.0" encoding="UTF-8" standalone="no"?>
<!-- Created with Inkscape (http://www.inkscape.org/) -->

<svg
   width="109.59486mm"
   height="67.733337mm"
   viewBox="0 0 109.59486 67.733337"
   version="1.1"
   id="svg1"
   xmlns:inkscape="http://www.inkscape.org/namespaces/inkscape"
   xmlns:sodipodi="http://sodipodi.sourceforge.net/DTD/sodipodi-0.dtd"
   xmlns="http://www.w3.org/2000/svg"
   xmlns:svg="http://www.w3.org/2000/svg">
  <sodipodi:namedview
     id="namedview1"
     pagecolor="#505050"
     bordercolor="#eeeeee"
     borderopacity="1"
     inkscape:showpageshadow="0"
     inkscape:pageopacity="0"
     inkscape:pagecheckerboard="0"
     inkscape:deskcolor="#505050"
     inkscape:document-units="mm" />
  <defs
     id="defs1" />
  <g
     inkscape:label="Layer 1"
     inkscape:groupmode="layer"
     id="layer1"
     transform="translate(-51.329168,-123.82499)">
    <path
       id="path2"
       style="fill:#ffffff;stroke-width:5.11699;stroke-linecap:round;stroke-miterlimit:10.7;paint-order:stroke fill markers"
       d="m 64.558332,123.825 a 13.229167,13.229167 0 0 0 -13.229166,13.22917 v 41.275 a 13.229167,13.229167 0 0 0 13.229166,13.22917 h 83.136518 a 13.229167,13.229167 0 0 0 13.22917,-13.22917 v -41.275 A 13.229167,13.229167 0 0 0 147.69485,123.825 Z m -6.008418,5.13354 a 2.2538199,2.2538199 0 0 1 0.83199,0.28215 l 48.035306,27.73216 45.41014,-27.58178 a 2.2538199,2.2538199 0 0 1 3.09594,0.75758 2.2538199,2.2538199 0 0 1 -0.75603,3.09593 L 107.4756,162.21336 57.128295,133.14485 a 2.2538199,2.2538199 0 0 1 -0.824239,-3.07837 2.2538199,2.2538199 0 0 1 1.368908,-1.05058 2.2538199,2.2538199 0 0 1 0.87695,-0.0574 z"
       inkscape:export-filename="eMailFull.svg"
       inkscape:export-xdpi="96"
       inkscape:export-ydpi="96" />
  </g>
</svg>
