<?xml version="1.0" encoding="UTF-8" standalone="no"?>
<!-- Created with Inkscape (http://www.inkscape.org/) -->

<svg
   width="112.67975mm"
   height="216.71683mm"
   viewBox="0 0 112.67975 216.71683"
   version="1.1"
   id="svg1"
   inkscape:version="1.3.2 (091e20e, 2023-11-25, custom)"
   sodipodi:docname="facebookLogo.svg"
   xmlns:inkscape="http://www.inkscape.org/namespaces/inkscape"
   xmlns:sodipodi="http://sodipodi.sourceforge.net/DTD/sodipodi-0.dtd"
   xmlns="http://www.w3.org/2000/svg"
   xmlns:svg="http://www.w3.org/2000/svg">
  <sodipodi:namedview
     id="namedview1"
     pagecolor="#505050"
     bordercolor="#eeeeee"
     borderopacity="1"
     inkscape:showpageshadow="0"
     inkscape:pageopacity="0"
     inkscape:pagecheckerboard="0"
     inkscape:deskcolor="#505050"
     inkscape:document-units="mm"
     inkscape:zoom="0.45344416"
     inkscape:cx="396.96177"
     inkscape:cy="561.25984"
     inkscape:window-width="1366"
     inkscape:window-height="705"
     inkscape:window-x="-8"
     inkscape:window-y="-8"
     inkscape:window-maximized="1"
     inkscape:current-layer="layer1" />
  <defs
     id="defs1" />
  <g
     inkscape:label="Layer 1"
     inkscape:groupmode="layer"
     id="layer1"
     transform="translate(-42.843331,-39.438376)">
    <path
       style="font-weight:bold;font-size:290.985px;line-height:0px;font-family:Arial;-inkscape-font-specification:'Arial, Bold';fill:#ffffff;stroke-width:77.196;stroke-linecap:round;stroke-miterlimit:10.7;paint-order:stroke fill markers"
       d="M 42.843332,106.24153 H 67.198508 V 93.784064 c 0,-13.910836 1.457147,-24.292056 4.371442,-31.143661 3.018377,-6.851606 8.482679,-12.405559 16.392907,-16.661859 8.01431,-4.360112 18.110253,-6.540169 30.287843,-6.540169 12.48984,0 25.30296,1.86862 37.27238,5.605859 l -0.6812,30.99756 c -6.97348,-1.660995 -16.60425,-2.968264 -23.05733,-2.968264 -6.349,0 -13.84609,1.505276 -16.6563,4.51583 -2.70614,2.906741 -4.05921,8.564507 -4.05921,16.973295 v 11.678875 h 43.28877 l -10.50295,34.41375 H 111.06904 V 256.1552 H 67.198508 V 140.65528 H 42.843332 Z"
       id="text1"
       aria-label="f"
       sodipodi:nodetypes="ccsccsccscsccccccccc" />
  </g>
</svg>
