<?xml version="1.0" encoding="UTF-8" standalone="no"?>
<!-- Created with Inkscape (http://www.inkscape.org/) -->

<svg
   width="139.45557mm"
   height="139.45557mm"
   viewBox="0 0 139.45557 139.45557"
   version="1.1"
   id="svg1"
   xml:space="preserve"
   inkscape:version="1.3.2 (091e20e, 2023-11-25, custom)"
   sodipodi:docname="instaLogo.svg"
   xmlns:inkscape="http://www.inkscape.org/namespaces/inkscape"
   xmlns:sodipodi="http://sodipodi.sourceforge.net/DTD/sodipodi-0.dtd"
   xmlns="http://www.w3.org/2000/svg"
   xmlns:svg="http://www.w3.org/2000/svg"><sodipodi:namedview
     id="namedview1"
     pagecolor="#505050"
     bordercolor="#eeeeee"
     borderopacity="1"
     inkscape:showpageshadow="0"
     inkscape:pageopacity="0"
     inkscape:pagecheckerboard="0"
     inkscape:deskcolor="#505050"
     inkscape:document-units="mm"
     inkscape:zoom="0.45344416"
     inkscape:cx="313.15873"
     inkscape:cy="550.23313"
     inkscape:window-width="1366"
     inkscape:window-height="705"
     inkscape:window-x="-8"
     inkscape:window-y="-8"
     inkscape:window-maximized="1"
     inkscape:current-layer="layer1" /><defs
     id="defs1" /><g
     inkscape:label="Layer 1"
     inkscape:groupmode="layer"
     id="layer1"
     transform="translate(-43.178762,-92.77625)"><path
       id="path13"
       style="fill:#ffffff;fill-opacity:1;stroke:none;stroke-width:5.11699;stroke-linecap:round;stroke-miterlimit:10.7;stroke-dasharray:none;paint-order:stroke fill markers"
       d="m 82.86626,92.776249 a 39.6875,39.6875 0 0 0 -39.6875,39.687501 v 60.08057 a 39.6875,39.6875 0 0 0 39.6875,39.6875 h 60.08057 a 39.6875,39.6875 0 0 0 39.6875,-39.6875 v -60.08057 a 39.6875,39.6875 0 0 0 -39.6875,-39.687501 z m 2.70216,6.272486 h 54.67625 a 36.117286,36.117286 0 0 1 36.11717,36.117175 v 54.67625 a 36.117286,36.117286 0 0 1 -36.11717,36.11717 H 85.56842 A 36.117286,36.117286 0 0 1 49.451245,189.84216 V 135.16591 A 36.117286,36.117286 0 0 1 85.56842,99.048735 Z"
       inkscape:export-filename="instaLogoWhite.svg"
       inkscape:export-xdpi="96"
       inkscape:export-ydpi="96" /><path
       id="circle16"
       style="fill:#ffffff;stroke-width:1.66857;stroke-linecap:round;stroke-miterlimit:10.7;paint-order:stroke fill markers"
       d="m 152.00106,115.6785 a 6.5642764,6.5642764 0 0 0 -6.56425,6.56424 6.5642764,6.5642764 0 0 0 6.56425,6.56442 6.5642764,6.5642764 0 0 0 6.56424,-6.56442 6.5642764,6.5642764 0 0 0 -6.56424,-6.56424 z" /><path
       id="path20"
       style="fill:#ffffff;stroke-width:5.80307;stroke-linecap:round;stroke-miterlimit:10.7;paint-order:stroke fill markers"
       d="m 112.90655,132.89173 a 29.612499,29.612499 0 0 0 -29.612606,29.612 29.612499,29.612499 0 0 0 29.612606,29.61261 29.612499,29.612499 0 0 0 29.6126,-29.61261 29.612499,29.612499 0 0 0 -29.6126,-29.612 z m 0,6.78237 a 22.82975,22.82975 0 0 1 22.82964,22.82963 22.82975,22.82975 0 0 1 -22.82964,22.83024 22.82975,22.82975 0 0 1 -22.829645,-22.83024 22.82975,22.82975 0 0 1 22.829645,-22.82963 z" /></g></svg>
