<?xml version="1.0" encoding="UTF-8" standalone="no"?>
<!-- Created with Inkscape (http://www.inkscape.org/) -->

<svg
   width="69.849998mm"
   height="69.849998mm"
   viewBox="0 0 69.849998 69.849998"
   version="1.1"
   id="svg1"
   inkscape:export-filename="instaLogoFullWhite.png"
   inkscape:export-xdpi="96"
   inkscape:export-ydpi="96"
   xmlns:inkscape="http://www.inkscape.org/namespaces/inkscape"
   xmlns:sodipodi="http://sodipodi.sourceforge.net/DTD/sodipodi-0.dtd"
   xmlns="http://www.w3.org/2000/svg"
   xmlns:svg="http://www.w3.org/2000/svg">
  <sodipodi:namedview
     id="namedview1"
     pagecolor="#505050"
     bordercolor="#eeeeee"
     borderopacity="1"
     inkscape:showpageshadow="0"
     inkscape:pageopacity="0"
     inkscape:pagecheckerboard="0"
     inkscape:deskcolor="#505050"
     inkscape:document-units="mm" />
  <defs
     id="defs1" />
  <g
     inkscape:label="Layer 1"
     inkscape:groupmode="layer"
     id="layer1"
     transform="translate(-59.531251,-124.35417)">
    <path
       id="rect1"
       style="fill:#ffffff;stroke:none;stroke-width:5.11699;stroke-linecap:round;stroke-miterlimit:10.7;paint-order:stroke fill markers"
       d="m 94.45625,148.87308 c -5.777416,0 -10.406083,4.62866 -10.406083,10.40609 0,5.77741 4.628667,10.40608 10.406083,10.40608 5.77742,0 10.40608,-4.62867 10.40608,-10.40608 0,-5.77743 -4.62866,-10.40609 -10.40608,-10.40609 z" />
    <path
       id="path4"
       style="fill:#ffffff;stroke:none;stroke-width:5.11699;stroke-linecap:round;stroke-miterlimit:10.7;paint-order:stroke fill markers"
       d="M 80.697917,124.35417 A 21.166667,21.166667 0 0 0 59.53125,145.52083 v 27.51667 a 21.166667,21.166667 0 0 0 21.166667,21.16667 h 27.516663 a 21.166667,21.166667 0 0 0 21.16667,-21.16667 v -27.51667 a 21.166667,21.166667 0 0 0 -21.16667,-21.16666 z m 33.337503,9.54567 a 3.6836321,3.6836321 0 0 1 3.68349,3.68349 3.6836321,3.6836321 0 0 1 -3.68349,3.6835 3.6836321,3.6836321 0 0 1 -3.6835,-3.6835 3.6836321,3.6836321 0 0 1 3.6835,-3.68349 z m -19.57917,9.85573 c 8.54283,0 15.5236,6.98077 15.5236,15.5236 0,8.54282 -6.98077,15.5236 -15.5236,15.5236 -8.542828,0 -15.5236,-6.98078 -15.5236,-15.5236 0,-8.54283 6.980772,-15.5236 15.5236,-15.5236 z" />
  </g>
</svg>
