<?xml version="1.0" encoding="UTF-8" standalone="no"?>
<!-- Created with Inkscape (http://www.inkscape.org/) -->

<svg
   width="48.56609mm"
   height="105.8543mm"
   viewBox="0 0 48.56609 105.8543"
   version="1.1"
   id="svg1"
   inkscape:version="1.3.2 (091e20e, 2023-11-25, custom)"
   sodipodi:docname="locationPoint.svg"
   xmlns:inkscape="http://www.inkscape.org/namespaces/inkscape"
   xmlns:sodipodi="http://sodipodi.sourceforge.net/DTD/sodipodi-0.dtd"
   xmlns="http://www.w3.org/2000/svg"
   xmlns:svg="http://www.w3.org/2000/svg">
  <sodipodi:namedview
     id="namedview1"
     pagecolor="#505050"
     bordercolor="#eeeeee"
     borderopacity="1"
     inkscape:showpageshadow="0"
     inkscape:pageopacity="0"
     inkscape:pagecheckerboard="0"
     inkscape:deskcolor="#505050"
     inkscape:document-units="mm"
     inkscape:zoom="0.1767767"
     inkscape:cx="-367.69553"
     inkscape:cy="517.60216"
     inkscape:window-width="1366"
     inkscape:window-height="705"
     inkscape:window-x="-8"
     inkscape:window-y="-8"
     inkscape:window-maximized="1"
     inkscape:current-layer="layer1" />
  <defs
     id="defs1" />
  <g
     inkscape:label="Layer 1"
     inkscape:groupmode="layer"
     id="layer1"
     transform="translate(-90.677897,-96.101339)">
    <g
       id="g14"
       inkscape:export-filename="locationPoint.svg"
       inkscape:export-xdpi="96"
       inkscape:export-ydpi="96"
       style="fill:#ffffff;stroke:#ffffff">
      <path
         id="path11"
         style="color:#000000;fill:#ffffff;stroke:#ffffff;stroke-linecap:round;stroke-miterlimit:10.7;-inkscape-stroke:none;paint-order:stroke fill markers"
         d="m 92.765914,125.5236 h -0.0041 l 0.01602,0.0501 c -0.0039,-0.0167 -0.008,-0.0334 -0.01189,-0.0501 z" />
      <path
         id="path10"
         style="color:#000000;fill:#ffffff;stroke:#ffffff;stroke-linecap:round;stroke-miterlimit:10.7;-inkscape-stroke:none;paint-order:stroke fill markers"
         d="m 93.049101,129.64325 c 0.648361,1.53145 1.457531,2.97756 2.397786,4.32532 l -1.578198,-4.96352 c -0.450909,-1.10296 -0.815805,-2.24964 -1.09089,-3.43132 l -0.01602,-0.0501 h 0.0041 c -0.07459,-0.32374 -0.141931,-0.64988 -0.202572,-0.97875 l -1.018025,-0.0176 c 0.0602,0.34217 0.12634,0.68209 0.201021,1.01906 z" />
      <path
         id="path9"
         style="color:#000000;fill:#ffffff;stroke:#ffffff;stroke-linecap:round;stroke-miterlimit:10.7;-inkscape-stroke:none;paint-order:stroke fill markers"
         d="m 93.049101,129.64325 -1.302763,-4.09691 c 0.313927,1.41651 0.748466,2.78764 1.302763,4.09691 z" />
      <path
         id="path8"
         style="color:#000000;fill:#ffffff;stroke:#ffffff;stroke-linecap:round;stroke-miterlimit:10.7;-inkscape-stroke:none;paint-order:stroke fill markers"
         d="m 138.33212,124.77688 -1.75441,5.51853 c 0.79845,-1.73747 1.3931,-3.58644 1.75441,-5.51853 z" />
      <path
         id="path7"
         style="color:#000000;fill:#ffffff;stroke:#ffffff;stroke-linecap:round;stroke-miterlimit:10.7;-inkscape-stroke:none;paint-order:stroke fill markers"
         d="m 138.37708,124.52573 -1.01802,0.0176 c -0.33614,1.8237 -0.88858,3.57026 -1.63091,5.21364 l -1.40922,4.43125 c 0.87003,-1.21755 1.6277,-2.51951 2.25878,-3.89278 l 1.75441,-5.51853 c 0.0156,-0.0835 0.0302,-0.16735 0.045,-0.25115 z" />
      <path
         id="path6"
         style="color:#000000;fill:#ffffff;stroke:#ffffff;stroke-linecap:round;stroke-miterlimit:10.7;-inkscape-stroke:none;paint-order:stroke fill markers"
         d="m 114.96094,96.601339 c -13.12923,-2e-6 -23.783044,10.654331 -23.783043,23.783561 0,1.41375 0.130567,2.79624 0.36742,4.14238 l 1.018025,0.0176 c -0.248825,-1.34944 -0.385506,-2.73819 -0.385506,-4.15995 -10e-7,-12.58879 10.194314,-22.783108 22.783104,-22.783106 12.58878,2e-6 22.78311,10.194316 22.78311,22.783106 0,1.4212 -0.13636,2.80946 -0.38499,4.1584 l 1.01802,-0.0176 c 0.23667,-1.34564 0.36691,-2.72764 0.36691,-4.14083 0,-13.12923 -10.65383,-23.783559 -23.78305,-23.783561 z" />
      <path
         id="path2"
         style="color:#000000;fill:#ffffff;stroke:#ffffff;stroke-width:1.92477;stroke-linecap:round;stroke-miterlimit:10.7;stroke-dasharray:none;paint-order:stroke fill markers"
         d="m 95.602911,132.67849 c -1.245834,-2.03865 -2.176532,-4.28902 -2.736791,-6.68159 l -0.373493,-0.006 11.356963,35.71753 11.25551,36.94494 11.2555,-36.94494 11.35497,-35.71753 -0.28894,0.005 c -0.58417,2.49543 -1.57502,4.83328 -2.90191,6.9407 l -9.0608,28.49386 -10.35882,34.00474 -10.36082,-34.00474 z" />
      <circle
         style="fill:#ffffff;stroke:#ffffff;stroke-width:2;stroke-linecap:round;stroke-miterlimit:10.7;stroke-dasharray:none;paint-order:stroke fill markers"
         id="path14"
         cx="115.24662"
         cy="118.98839"
         r="9.2234831" />
    </g>
  </g>
</svg>
