<?xml version="1.0" encoding="UTF-8" standalone="no"?>
<!-- Created with Inkscape (http://www.inkscape.org/) -->

<svg
   width="159.46005mm"
   height="137.74693mm"
   viewBox="0 0 159.46005 137.74693"
   version="1.1"
   id="svg1"
   inkscape:version="1.3.2 (091e20e, 2023-11-25, custom)"
   sodipodi:docname="telephone.svg"
   xmlns:inkscape="http://www.inkscape.org/namespaces/inkscape"
   xmlns:sodipodi="http://sodipodi.sourceforge.net/DTD/sodipodi-0.dtd"
   xmlns="http://www.w3.org/2000/svg"
   xmlns:svg="http://www.w3.org/2000/svg">
  <sodipodi:namedview
     id="namedview1"
     pagecolor="#505050"
     bordercolor="#eeeeee"
     borderopacity="1"
     inkscape:showpageshadow="0"
     inkscape:pageopacity="0"
     inkscape:pagecheckerboard="0"
     inkscape:deskcolor="#505050"
     inkscape:document-units="mm"
     inkscape:zoom="0.25"
     inkscape:cx="372"
     inkscape:cy="502"
     inkscape:window-width="1366"
     inkscape:window-height="705"
     inkscape:window-x="-8"
     inkscape:window-y="-8"
     inkscape:window-maximized="1"
     inkscape:current-layer="layer1" />
  <defs
     id="defs1">
    <inkscape:path-effect
       effect="fillet_chamfer"
       id="path-effect14"
       is_visible="true"
       lpeversion="1"
       nodesatellites_param="F,0,0,1,0,5.2916667,0,1 @ F,0,0,1,0,5.2916667,0,1 @ F,0,0,1,0,5.2916667,0,1 @ F,0,0,1,0,5.2916667,0,1"
       radius="20"
       unit="px"
       method="auto"
       mode="F"
       chamfer_steps="1"
       flexible="false"
       use_knot_distance="true"
       apply_no_radius="true"
       apply_with_radius="true"
       only_selected="false"
       hide_knots="false" />
    <inkscape:path-effect
       effect="fillet_chamfer"
       id="path-effect10"
       is_visible="true"
       lpeversion="1"
       nodesatellites_param="F,0,0,1,0,5.2916667,0,1 @ F,0,0,1,0,5.2916667,0,1 @ F,0,0,1,0,5.2916667,0,1 @ F,0,0,1,0,5.2916667,0,1"
       radius="20"
       unit="px"
       method="auto"
       mode="F"
       chamfer_steps="1"
       flexible="false"
       use_knot_distance="true"
       apply_no_radius="true"
       apply_with_radius="true"
       only_selected="false"
       hide_knots="false" />
  </defs>
  <g
     inkscape:label="Layer 1"
     inkscape:groupmode="layer"
     id="layer1"
     transform="translate(-39.678811,-65.100905)">
    <g
       id="g14"
       transform="translate(11.641667,-10.583334)"
       inkscape:export-filename="telephone.svg"
       inkscape:export-xdpi="96"
       inkscape:export-ydpi="96">
      <path
         id="path10"
         style="color:#000000;fill:#ffffff;stroke:#ffffff;stroke-width:6.84881;stroke-linecap:square;stroke-miterlimit:3.2;stroke-dasharray:none;paint-order:stroke fill markers"
         d="m 163.97126,205.65472 -23.37357,-18.1077 c -17.98235,0.86525 -37.5188,-4.86922 -54.516269,-18.0373 C 69.083966,156.34164 58.649629,138.85746 54.994284,121.2293 L 31.620721,103.1216 c -1.86923,30.85195 12.850363,63.18286 40.405796,84.5303 27.555433,21.34743 62.538433,27.52156 91.944743,18.00282 z" />
      <path
         style="fill:#ffffff;stroke:none;stroke-width:30.428;stroke-linecap:square;stroke-miterlimit:3.2;paint-order:stroke fill markers"
         id="rect10"
         width="49.765583"
         height="35.546848"
         x="9.9477987"
         y="169.12816"
         inkscape:path-effect="#path-effect10"
         sodipodi:type="rect"
         d="m 15.239465,169.12816 h 39.18225 a 5.2916667,5.2916667 45 0 1 5.291667,5.29167 v 24.96351 a 5.2916667,5.2916667 135 0 1 -5.291667,5.29167 h -39.18225 a 5.2916667,5.2916667 45 0 1 -5.2916663,-5.29167 v -24.96351 a 5.2916667,5.2916667 135 0 1 5.2916663,-5.29167 z"
         transform="matrix(0.60496116,0.46866871,-0.52652055,0.67963675,128.87561,-45.631535)" />
      <path
         style="fill:#ffffff;stroke:none;stroke-width:30.428;stroke-linecap:square;stroke-miterlimit:3.2;paint-order:stroke fill markers"
         id="path13"
         width="49.765583"
         height="35.546848"
         x="9.9477987"
         y="169.12816"
         inkscape:path-effect="#path-effect14"
         sodipodi:type="rect"
         d="m 15.239465,169.12816 h 39.18225 a 5.2916667,5.2916667 45 0 1 5.291667,5.29167 v 24.96351 a 5.2916667,5.2916667 135 0 1 -5.291667,5.29167 h -39.18225 a 5.2916667,5.2916667 45 0 1 -5.2916663,-5.29167 v -24.96351 a 5.2916667,5.2916667 135 0 1 5.2916663,-5.29167 z"
         transform="matrix(0.60496116,0.46866871,-0.52652055,0.67963675,242.1659,42.135446)" />
    </g>
  </g>
</svg>
