<?xml version="1.0" encoding="UTF-8" standalone="no"?>
<!-- Created with Inkscape (http://www.inkscape.org/) -->

<svg
   width="56.503906mm"
   height="69.998047mm"
   viewBox="0 0 56.503906 69.998047"
   version="1.1"
   id="svg1"
   inkscape:version="1.3.2 (091e20e, 2023-11-25, custom)"
   sodipodi:docname="todolistCheckboard.svg"
   xmlns:inkscape="http://www.inkscape.org/namespaces/inkscape"
   xmlns:sodipodi="http://sodipodi.sourceforge.net/DTD/sodipodi-0.dtd"
   xmlns="http://www.w3.org/2000/svg"
   xmlns:svg="http://www.w3.org/2000/svg">
  <sodipodi:namedview
     id="namedview1"
     pagecolor="#505050"
     bordercolor="#eeeeee"
     borderopacity="1"
     inkscape:showpageshadow="0"
     inkscape:pageopacity="0"
     inkscape:pagecheckerboard="0"
     inkscape:deskcolor="#505050"
     inkscape:document-units="mm"
     inkscape:zoom="0.70710678"
     inkscape:cx="285.67114"
     inkscape:cy="490.025"
     inkscape:window-width="1366"
     inkscape:window-height="705"
     inkscape:window-x="-8"
     inkscape:window-y="-8"
     inkscape:window-maximized="1"
     inkscape:current-layer="layer1" />
  <defs
     id="defs1" />
  <g
     inkscape:label="Layer 1"
     inkscape:groupmode="layer"
     id="layer1"
     transform="translate(-74.142572,-109.06646)">
    <g
       id="g15"
       style="fill:#ffffff"
       inkscape:export-filename="todolistCheckboard.svg"
       inkscape:export-xdpi="96"
       inkscape:export-ydpi="96">
      <g
         id="g12"
         style="fill:#ffffff">
        <path
           style="color:#000000;fill:#ffffff;stroke-linecap:round;stroke-linejoin:round;-inkscape-stroke:none"
           d="m 83.07972,119.5858 -8.937142,7.51317 v -0.033 8.49975 8.49976 8.49976 8.49975 8.49975 8.49976 c 5.5e-5,0.55226 0.447738,0.99994 1,1 h 54.503902 c 0.55226,-6e-5 0.99994,-0.44774 1,-1 v -67.99804 c -6e-5,-0.55226 -0.44774,-0.99994 -1,-1 h -27.25195 -7.408268 z m 12.849708,-8.51939 h 32.717052 v 65.99804 H 76.142578 v -32.99902 -15.74199 z"
           id="rect1"
           sodipodi:nodetypes="cccccccccccccccccccccccc" />
        <path
           style="color:#000000;fill:#ffffff;stroke-linecap:round;stroke-linejoin:round;-inkscape-stroke:none;paint-order:stroke fill markers"
           d="m 95.798828,110.12305 a 1,1 0 0 0 -1,1 v 15.28906 H 76.617187 a 1,1 0 0 0 -1,1 1,1 0 0 0 1,1 h 19.181641 a 1.0001,1.0001 0 0 0 1,-1 v -16.28906 a 1,1 0 0 0 -1,-1 z"
           id="path1" />
      </g>
      <g
         id="g9"
         transform="translate(-0.1870885)"
         style="fill:#ffffff">
        <path
           id="path6"
           style="color:#000000;fill:#ffffff;stroke-width:0.659877;stroke-linecap:round;stroke-linejoin:round;-inkscape-stroke:none"
           d="m 88.343896,151.16359 c -4.5577,0 -8.273024,3.71668 -8.273024,8.27438 0,4.55771 3.715324,8.27405 8.273024,8.27405 4.5577,0 8.274044,-3.71634 8.274044,-8.27405 0,-0.76416 -0.106721,-1.50398 -0.302124,-2.20729 l -1.699547,1.69954 c 0.01326,0.16763 0.02217,0.33661 0.02217,0.50775 0,3.48784 -2.806708,6.29454 -6.294538,6.29454 -3.48783,0 -6.293513,-2.8067 -6.293513,-6.29454 0,-3.48782 2.805683,-6.29487 6.293513,-6.29487 1.706073,0 3.248102,0.67271 4.379475,1.76707 l 1.390943,-1.39094 c -1.492521,-1.45561 -3.529099,-2.35564 -5.770419,-2.35564 z" />
        <path
           style="color:#000000;fill:#ffffff;stroke-linecap:round;stroke-linejoin:round;-inkscape-stroke:none;paint-order:stroke fill markers"
           d="m 94.888672,154.05078 -6.958985,6.95703 -2.734375,-2.73437 a 1.10095,1.10095 0 0 0 -1.558593,0 1.10095,1.10095 0 0 0 0,1.55664 l 3.513672,3.51367 a 1.1010601,1.1010601 0 0 0 1.55664,0 l 7.738281,-7.73633 a 1.10095,1.10095 0 0 0 0,-1.55664 1.10095,1.10095 0 0 0 -1.55664,0 z"
           id="path7" />
      </g>
      <g
         id="g10"
         transform="translate(0.1870885)"
         style="fill:#ffffff">
        <path
           id="path8"
           style="color:#000000;fill:#ffffff;stroke-width:0.659877;stroke-linecap:round;stroke-linejoin:round;-inkscape-stroke:none"
           d="m 87.969719,131.70637 c -4.5577,0 -8.273024,3.71668 -8.273024,8.27438 0,4.55771 3.715324,8.27405 8.273024,8.27405 4.5577,0 8.274044,-3.71634 8.274044,-8.27405 0,-0.76416 -0.106721,-1.50398 -0.302124,-2.20729 l -1.699547,1.69954 c 0.01326,0.16763 0.02217,0.33661 0.02217,0.50775 0,3.48784 -2.806708,6.29454 -6.294538,6.29454 -3.48783,0 -6.293513,-2.8067 -6.293513,-6.29454 0,-3.48782 2.805683,-6.29487 6.293513,-6.29487 1.706073,0 3.248102,0.67271 4.379475,1.76707 l 1.390943,-1.39094 c -1.492521,-1.45561 -3.529099,-2.35564 -5.770419,-2.35564 z" />
        <path
           style="color:#000000;fill:#ffffff;stroke-linecap:round;stroke-linejoin:round;-inkscape-stroke:none;paint-order:stroke fill markers"
           d="m 94.513672,134.59375 -6.958985,6.95703 -2.734375,-2.73437 a 1.10095,1.10095 0 0 0 -1.55664,0 1.10095,1.10095 0 0 0 0,1.55664 l 3.513672,3.51367 a 1.1010601,1.1010601 0 0 0 1.55664,0 l 7.736328,-7.73633 a 1.10095,1.10095 0 0 0 0,-1.55664 1.10095,1.10095 0 0 0 -1.55664,0 z"
           id="path9" />
      </g>
      <path
         style="color:#000000;fill:#ffffff;stroke-linecap:round;stroke-linejoin:round;-inkscape-stroke:none"
         d="m 102.45313,138.2793 a 1.7013,1.7013 0 0 0 -1.70118,1.70117 1.7013,1.7013 0 0 0 1.70118,1.70117 h 18.23046 a 1.7013,1.7013 0 0 0 1.70313,-1.70117 1.7013,1.7013 0 0 0 -1.70313,-1.70117 z"
         id="path12" />
      <path
         style="color:#000000;fill:#ffffff;stroke-linecap:round;stroke-linejoin:round;-inkscape-stroke:none"
         d="m 116.88867,114.93359 a 0.5,0.5 0 0 0 -0.5,0.5 0.5,0.5 0 0 0 0.5,0.5 h 8.90821 a 0.5,0.5 0 0 0 0.5,-0.5 0.5,0.5 0 0 0 -0.5,-0.5 z"
         id="path14" />
      <path
         style="color:#000000;fill:#ffffff;stroke-linecap:round;stroke-linejoin:round;-inkscape-stroke:none"
         d="m 119.41797,116.89844 a 0.5,0.5 0 0 0 -0.5,0.5 0.5,0.5 0 0 0 0.5,0.5 h 6.37891 a 0.5,0.5 0 0 0 0.5,-0.5 0.5,0.5 0 0 0 -0.5,-0.5 z"
         id="path15" />
      <path
         style="color:#000000;fill:#ffffff;stroke-linecap:round;stroke-linejoin:round;-inkscape-stroke:none"
         d="m 102.45313,157.73633 a 1.7013,1.7013 0 0 0 -1.70118,1.70117 1.7013,1.7013 0 0 0 1.70118,1.70117 h 18.23046 a 1.7013,1.7013 0 0 0 1.70313,-1.70117 1.7013,1.7013 0 0 0 -1.70313,-1.70117 z"
         id="path13" />
    </g>
  </g>
</svg>
