<?xml version="1.0" encoding="UTF-8" standalone="no"?>
<!-- Created with Inkscape (http://www.inkscape.org/) -->

<svg
   width="87.285156mm"
   height="87.285156mm"
   viewBox="0 0 87.285157 87.285156"
   version="1.1"
   id="svg1"
   inkscape:export-filename="worldIcon.svg"
   inkscape:export-xdpi="96"
   inkscape:export-ydpi="96"
   sodipodi:docname="worldIcon.svg"
   xmlns:inkscape="http://www.inkscape.org/namespaces/inkscape"
   xmlns:sodipodi="http://sodipodi.sourceforge.net/DTD/sodipodi-0.dtd"
   xmlns="http://www.w3.org/2000/svg"
   xmlns:svg="http://www.w3.org/2000/svg">
  <sodipodi:namedview
     id="namedview1"
     pagecolor="#505050"
     bordercolor="#eeeeee"
     borderopacity="1"
     inkscape:showpageshadow="0"
     inkscape:pageopacity="0"
     inkscape:pagecheckerboard="0"
     inkscape:deskcolor="#505050"
     inkscape:document-units="mm" />
  <defs
     id="defs1" />
  <g
     inkscape:label="Layer 1"
     inkscape:groupmode="layer"
     id="layer1"
     transform="translate(-75.287109,-116.29831)">
    <g
       id="g66"
       inkscape:export-filename="worldIcon.svg"
       inkscape:export-xdpi="96"
       inkscape:export-ydpi="96"
       style="fill:#ffffff">
      <path
         style="color:#000000;fill:#ffffff;stroke-linecap:round;stroke-linejoin:round;-inkscape-stroke:none;paint-order:stroke fill markers"
         d="m 118.92969,116.29831 c -24.073566,0 -43.642581,19.56902 -43.642581,43.64258 0,24.07356 19.569015,43.64258 43.642581,43.64258 24.07356,0 43.64258,-19.56902 43.64258,-43.64258 0,-24.07356 -19.56902,-43.64258 -43.64258,-43.64258 z m 0,5 c 21.37137,0 38.64258,17.27121 38.64258,38.64258 0,21.37137 -17.27121,38.64258 -38.64258,38.64258 -21.371374,0 -38.642581,-17.27121 -38.642581,-38.64258 0,-21.37137 17.271207,-38.64258 38.642581,-38.64258 z"
         id="path1" />
      <path
         id="circle1"
         style="color:#000000;fill:#ffffff;stroke-width:1.11617;stroke-linecap:round;stroke-linejoin:round;-inkscape-stroke:none;paint-order:stroke fill markers"
         d="m 145.05678,173.42042 h -3.09232 c -2.15314,9.37523 -6.47235,17.60459 -12.24163,23.79907 v 4.79299 c 7.39952,-7.05182 12.87937,-17.05807 15.33395,-28.59206 z" />
      <path
         id="path62"
         style="color:#000000;fill:#ffffff;stroke-width:1.11617;stroke-linecap:round;stroke-linejoin:round;-inkscape-stroke:none;paint-order:stroke fill markers"
         d="m 145.39474,171.75386 h -3.08508 c -0.11121,0.55755 -0.21892,1.11673 -0.3452,1.66656 h 3.09232 c 0.11773,-0.55319 0.23436,-1.10646 0.33796,-1.66656 z" />
      <path
         id="path60"
         style="color:#000000;fill:#ffffff;stroke-width:1.11617;stroke-linecap:round;stroke-linejoin:round;-inkscape-stroke:none;paint-order:stroke fill markers"
         d="m 145.11569,146.46134 h -3.09077 c 0.12365,0.55018 0.23093,1.10876 0.33952,1.66657 h 3.07578 c -0.10099,-0.55916 -0.20948,-1.11422 -0.32453,-1.66657 z" />
      <path
         id="path59"
         style="color:#000000;fill:#ffffff;stroke-width:1.11617;stroke-linecap:round;stroke-linejoin:round;-inkscape-stroke:none;paint-order:stroke fill markers"
         d="m 129.72283,117.60316 v 4.79299 c 5.82408,6.25287 10.17015,14.57928 12.30209,24.06519 h 3.09077 c -2.42598,-11.6471 -7.93592,-21.75219 -15.39286,-28.85818 z" />
      <path
         id="path11"
         style="color:#000000;fill:#ffffff;stroke-width:5;stroke-linecap:round;stroke-linejoin:round;stroke-dasharray:none;paint-order:stroke fill markers"
         d="m 96.678853,173.42042 h -3.092317 c 2.454575,11.53399 7.934424,21.54024 15.333944,28.59206 v -4.79299 C 103.1512,191.02501 98.831992,182.79565 96.678853,173.42042 Z" />
      <path
         id="path58"
         style="color:#000000;fill:#ffffff;stroke-width:5;stroke-linecap:round;stroke-linejoin:round;stroke-dasharray:none;paint-order:stroke fill markers"
         d="m 96.333655,171.75386 h -3.085083 c 0.103607,0.5601 0.220238,1.11337 0.337964,1.66656 h 3.092317 c -0.126276,-0.54983 -0.233984,-1.10901 -0.345198,-1.66656 z" />
      <path
         id="path56"
         style="color:#000000;fill:#ffffff;stroke-width:5;stroke-linecap:round;stroke-linejoin:round;stroke-dasharray:none;paint-order:stroke fill markers"
         d="m 96.618392,146.46134 h -3.090767 c -0.11505,0.55235 -0.223538,1.10741 -0.324528,1.66657 h 3.075781 c 0.108591,-0.55781 0.215864,-1.11639 0.339514,-1.66657 z" />
      <path
         id="path55"
         style="color:#000000;fill:#ffffff;stroke-width:5;stroke-linecap:round;stroke-linejoin:round;stroke-dasharray:none;paint-order:stroke fill markers"
         d="m 108.92048,117.60316 c -7.45693,7.10598 -12.966871,17.21109 -15.392855,28.85818 h 3.090767 c 2.131938,-9.48591 6.478018,-17.81232 12.302088,-24.06519 z" />
      <path
         id="path14"
         style="color:#000000;fill:#ffffff;stroke-linecap:round;stroke-linejoin:round;-inkscape-stroke:none;paint-order:stroke fill markers"
         d="m 120.04487,173.42042 h -2.23036 v 25.66769 a 1.115235,1.115235 0 0 0 1.11518,1.11517 1.115235,1.115235 0 0 0 1.11518,-1.11517 z" />
      <path
         id="path50"
         style="color:#000000;fill:#ffffff;stroke-linecap:round;stroke-linejoin:round;-inkscape-stroke:none;paint-order:stroke fill markers"
         d="m 120.04487,171.75386 h -2.23036 v 1.66656 h 2.23036 z" />
      <path
         id="path48"
         style="color:#000000;fill:#ffffff;stroke-linecap:round;stroke-linejoin:round;-inkscape-stroke:none;paint-order:stroke fill markers"
         d="m 120.04487,146.46134 h -2.23036 v 1.66657 h 2.23036 z" />
      <path
         id="path47"
         style="color:#000000;fill:#ffffff;stroke-linecap:round;stroke-linejoin:round;-inkscape-stroke:none;paint-order:stroke fill markers"
         d="m 118.92969,119.67952 a 1.115235,1.115235 0 0 0 -1.11518,1.11517 v 25.66665 h 2.23036 v -25.66665 a 1.115235,1.115235 0 0 0 -1.11518,-1.11517 z" />
      <path
         id="path54"
         style="color:#000000;fill:#ffffff;stroke-linecap:round;stroke-linejoin:round;-inkscape-stroke:none;paint-order:stroke fill markers"
         d="m 155.34814,161.05684 h 2.728 a 1.115235,1.115235 0 0 0 1.11518,-1.11518 1.115235,1.115235 0 0 0 -1.11518,-1.1157 h -2.728 z" />
      <path
         id="path53"
         style="color:#000000;fill:#ffffff;stroke-linecap:round;stroke-linejoin:round;-inkscape-stroke:none;paint-order:stroke fill markers"
         d="m 155.34814,161.05684 v -2.23088 h -1.5105 v 2.23088 z" />
      <path
         id="path52"
         style="color:#000000;fill:#ffffff;stroke-linecap:round;stroke-linejoin:round;-inkscape-stroke:none;paint-order:stroke fill markers"
         d="m 82.511243,158.82596 h -2.727999 a 1.115235,1.115235 0 0 0 -1.115178,1.1157 1.115235,1.115235 0 0 0 1.115178,1.11518 h 2.727999 z" />
      <path
         id="path51"
         style="color:#000000;fill:#ffffff;stroke-linecap:round;stroke-linejoin:round;-inkscape-stroke:none;paint-order:stroke fill markers"
         d="m 82.511243,158.82596 v 2.23088 h 1.510502 v -2.23088 z" />
      <path
         id="path16"
         style="color:#000000;fill:#ffffff;stroke-width:0.793849;stroke-linecap:round;stroke-linejoin:round;-inkscape-stroke:none;paint-order:stroke fill markers"
         d="m 149.35548,129.46315 c -6.90591,7.24642 -17.78475,11.9262 -30.01769,11.9262 -12.23291,0 -23.111058,-4.67979 -30.01643,-11.9262 h 3.409056 c 6.436801,5.99539 15.960514,9.79265 26.607374,9.79265 10.64692,0 20.17133,-3.79722 26.60861,-9.79265 z" />
      <path
         id="path17"
         style="color:#000000;fill:#ffffff;stroke-width:0.793849;stroke-linecap:round;stroke-linejoin:round;-inkscape-stroke:none;paint-order:stroke fill markers"
         d="m 148.46627,188.3004 c -6.90589,-7.24642 -17.78473,-11.92618 -30.01768,-11.92618 -12.23291,0 -23.111063,4.67977 -30.016429,11.92618 h 3.409049 c 6.436797,-5.99538 15.96051,-9.79264 26.60738,-9.79264 10.64691,0 20.17133,3.79723 26.60861,9.79264 z" />
      <path
         style="color:#000000;fill:#ffffff;stroke-width:2.38046;stroke-linecap:round;stroke-linejoin:round;stroke-dasharray:none;paint-order:stroke fill markers"
         d="m 83.26667,146.46132 a 0.75634889,0.83323344 0 0 0 -0.755253,0.83447 v 25.29263 a 0.75634889,0.83323344 0 0 0 0.755253,0.83203 h 71.32604 a 0.75634889,0.83323344 0 0 0 0.75525,-0.83203 v -25.29263 a 0.75634889,0.83323344 0 0 0 -0.75525,-0.83447 z m 0.755253,1.66649 h 69.815527 v 23.62614 H 84.021923 Z"
         id="rect17" />
      <g
         id="g65"
         transform="matrix(1.0540203,0,0,1.20007,77.657574,-13.177933)"
         style="fill:#ffffff">
        <text
           xml:space="preserve"
           style="font-style:normal;font-variant:normal;font-weight:normal;font-stretch:normal;font-size:21.1667px;font-family:'Times New Roman';-inkscape-font-specification:'Times New Roman, Normal';font-variant-ligatures:normal;font-variant-caps:normal;font-variant-numeric:normal;font-variant-east-asian:normal;fill:#ffffff;stroke:#000000;stroke-width:2;stroke-linecap:round;stroke-linejoin:round;stroke-dasharray:none;paint-order:stroke fill markers"
           x="8.231904"
           y="150.83998"
           id="text62"><tspan
             sodipodi:role="line"
             id="tspan62"
             style="fill:#ffffff;stroke-width:2"
             x="8.231904"
             y="150.83998">N</tspan></text>
        <text
           xml:space="preserve"
           style="font-style:normal;font-variant:normal;font-weight:normal;font-stretch:normal;font-size:21.1667px;font-family:'Times New Roman';-inkscape-font-specification:'Times New Roman, Normal';font-variant-ligatures:normal;font-variant-caps:normal;font-variant-numeric:normal;font-variant-east-asian:normal;fill:#ffffff;stroke:#000000;stroke-width:2;stroke-linecap:round;stroke-linejoin:round;stroke-dasharray:none;paint-order:stroke fill markers"
           x="25.444059"
           y="150.95366"
           id="text63"><tspan
             sodipodi:role="line"
             id="tspan63"
             style="fill:#ffffff;stroke-width:2"
             x="25.444059"
             y="150.95366">E</tspan></text>
        <text
           xml:space="preserve"
           style="font-style:normal;font-variant:normal;font-weight:normal;font-stretch:normal;font-size:21.1667px;font-family:'Times New Roman';-inkscape-font-specification:'Times New Roman, Normal';font-variant-ligatures:normal;font-variant-caps:normal;font-variant-numeric:normal;font-variant-east-asian:normal;fill:#ffffff;stroke:#000000;stroke-width:2;stroke-linecap:round;stroke-linejoin:round;stroke-dasharray:none;paint-order:stroke fill markers"
           x="39.288624"
           y="150.79347"
           id="text64"><tspan
             sodipodi:role="line"
             id="tspan64"
             style="fill:#ffffff;stroke-width:2"
             x="39.288624"
             y="150.79347">W</tspan></text>
        <text
           xml:space="preserve"
           style="font-style:normal;font-variant:normal;font-weight:normal;font-stretch:normal;font-size:21.1667px;font-family:'Times New Roman';-inkscape-font-specification:'Times New Roman, Normal';font-variant-ligatures:normal;font-variant-caps:normal;font-variant-numeric:normal;font-variant-east-asian:normal;fill:#ffffff;stroke:#000000;stroke-width:2;stroke-linecap:round;stroke-linejoin:round;stroke-dasharray:none;paint-order:stroke fill markers"
           x="59.494198"
           y="150.95366"
           id="text65"><tspan
             sodipodi:role="line"
             id="tspan65"
             style="fill:#ffffff;stroke-width:2"
             x="59.494198"
             y="150.95366">S</tspan></text>
      </g>
    </g>
  </g>
</svg>
